HIERARCHY
ROOT root
{
	OFFSET 0.000000 0.000000 0.000000
	CHANNELS 6 Xposition Yposition Zposition Zrotation Yrotation Xrotation
	JOINT lhip
	{
		OFFSET 0.058581 -0.082280 -0.017664
		CHANNELS 3 Zrotation Yrotation Xrotation
		JOINT lknee
		{
			OFFSET 0.043451 -0.386469 0.008037
			CHANNELS 3 Zrotation Yrotation Xrotation
			JOINT lankle
			{
				OFFSET -0.014790 -0.426874 -0.037428
				CHANNELS 3 Zrotation Yrotation Xrotation
				JOINT ltoe
				{
					OFFSET 0.041054 -0.060286 0.122042
					CHANNELS 3 Zrotation Yrotation Xrotation
					End Site
					{
						OFFSET 0.000000 0.000000 0.000000
					}
				}
			}
		}
	}
	JOINT rhip
	{
		OFFSET -0.060310 -0.090513 -0.013543
		CHANNELS 3 Zrotation Yrotation Xrotation
		JOINT rknee
		{
			OFFSET -0.043257 -0.383688 -0.004843
			CHANNELS 3 Zrotation Yrotation Xrotation
			JOINT rankle
			{
				OFFSET 0.019056 -0.420046 -0.034562
				CHANNELS 3 Zrotation Yrotation Xrotation
				JOINT rtoe
				{
					OFFSET -0.034840 -0.062106 0.130323
					CHANNELS 3 Zrotation Yrotation Xrotation
					End Site
					{
						OFFSET 0.000000 0.000000 0.000000
					}
				}
			}
		}
	}
	JOINT lowerback
	{
		OFFSET 0.004439 0.124404 -0.038385
		CHANNELS 3 Zrotation Yrotation Xrotation
		JOINT upperback
		{
			OFFSET 0.004488 0.137956 0.026820
			CHANNELS 3 Zrotation Yrotation Xrotation
			JOINT chest
			{
				OFFSET -0.002265 0.056032 0.002855
				CHANNELS 3 Zrotation Yrotation Xrotation
				JOINT lowerneck
				{
					OFFSET -0.013390 0.211636 -0.033468
					CHANNELS 3 Zrotation Yrotation Xrotation
					JOINT upperneck
					{
						OFFSET 0.010113 0.088937 0.050410
						CHANNELS 3 Zrotation Yrotation Xrotation
						End Site
						{
							OFFSET 0.000000 0.000000 0.000000
						}
					}
				}
				JOINT lclavicle
				{
					OFFSET 0.071702 0.114000 -0.018898
					CHANNELS 3 Zrotation Yrotation Xrotation
					JOINT lshoulder
					{
						OFFSET 0.122921 0.045205 -0.019046
						CHANNELS 3 Zrotation Yrotation Xrotation
						JOINT lelbow
						{
							OFFSET 0.255332 -0.015649 -0.022946
							CHANNELS 3 Zrotation Yrotation Xrotation
							JOINT lwrist
							{
								OFFSET 0.265709 0.012698 -0.007375
								CHANNELS 3 Zrotation Yrotation Xrotation
								End Site
								{
									OFFSET 0.000000 0.000000 0.000000
								}
							}
						}
					}
				}
				JOINT rclavicle
				{
					OFFSET -0.082954 0.112472 -0.023707
					CHANNELS 3 Zrotation Yrotation Xrotation
					JOINT rshoulder
					{
						OFFSET -0.113228 0.046853 -0.008472
						CHANNELS 3 Zrotation Yrotation Xrotation
						JOINT relbow
						{
							OFFSET -0.260127 -0.014369 -0.031269
							CHANNELS 3 Zrotation Yrotation Xrotation
							JOINT rwrist
							{
								OFFSET -0.269108 0.006794 -0.006027
								CHANNELS 3 Zrotation Yrotation Xrotation
								End Site
								{
									OFFSET 0.000000 0.000000 0.000000
								}
							}
						}
					}
				}
			}
		}
	}
}
MOTION
Frames: 11
Frame Time: 0.033333
1.365684 0.845396 0.967952 -2.077711 -2.545041 86.670349 9.065400 3.990620 -5.074124 -7.699466 -7.040360 18.574632 1.588774 5.253815 -16.297309 0.000000 -0.000000 0.000000 -18.358253 -4.613233 -6.120607 -4.453160 0.521671 18.025810 2.885395 -12.674103 -7.383944 0.000000 -0.000000 0.000000 1.138802 -1.412160 12.772469 2.494628 -3.058587 -2.533238 -0.718029 -3.244959 1.533442 2.743704 1.999156 11.584722 -4.195937 -0.051356 21.269986 -27.489630 8.473599 3.712721 -51.042772 -9.313912 6.806834 4.364365 -34.673753 12.348491 -0.446022 -2.429926 -4.095673 30.505088 -6.132014 0.417377 43.875471 6.860711 10.760571 -19.384688 32.635148 -14.771395 0.247473 2.729523 -1.965812 
1.388301 0.847128 0.971380 -2.131082 -1.617158 86.560394 8.073060 3.736767 -5.500336 -7.195732 -7.359213 19.219423 2.832471 6.140547 -16.500454 0.000000 -0.000000 0.000000 -15.887145 -4.292265 -7.450782 -5.154973 0.068484 21.736527 2.545898 -12.633529 -10.012029 0.000000 -0.000000 0.000000 2.002652 -1.428890 13.421883 2.626307 -2.405292 -2.924539 -0.707121 -2.702566 2.005414 2.220091 2.040381 10.872270 -4.498826 -0.369070 21.098291 -27.377321 7.914712 3.186131 -50.807983 -9.494357 6.976077 4.558235 -36.045545 12.169259 -0.583681 -2.135923 -3.687014 30.059171 -5.358247 1.055710 44.161097 5.956806 10.717296 -19.068777 32.142676 -14.542916 0.804339 2.495224 -1.993787 
1.407242 0.850074 0.975473 -2.567643 -1.755947 86.545759 6.141032 2.880265 -5.258968 -6.557639 -7.776825 18.525902 3.668460 7.806280 -15.856424 0.000000 -0.000000 0.000000 -13.639604 -2.555815 -9.797852 -4.200948 2.132947 28.406913 2.474458 -12.424330 -14.148511 0.000000 -0.000000 0.000000 1.431635 -1.276952 14.262055 2.588567 -1.365349 -3.289136 -0.858847 -2.315247 2.379824 2.480948 2.598202 10.032824 -4.970798 -1.022751 21.482930 -27.201480 7.880812 2.454063 -50.212099 -9.493258 7.344816 5.513296 -37.850726 10.517646 0.252098 -2.183637 -3.808068 30.213403 -4.808802 0.688219 44.429789 5.141951 11.851808 -18.209751 31.472272 -13.738274 1.074248 2.580166 -1.722337 
1.422951 0.850971 0.981262 -2.340944 -1.564529 86.180202 5.047617 2.457281 -4.025354 -6.048917 -8.491696 16.714905 3.898315 8.732021 -14.783774 0.000000 -0.000000 0.000000 -10.777277 -1.576534 -10.698575 -2.994363 1.917311 33.772733 3.034921 -11.472589 -17.613077 0.000000 -0.000000 0.000000 1.103353 -1.792016 14.892276 2.612824 -1.008052 -3.264035 -1.052711 -1.876265 2.626421 2.717484 3.232945 10.323963 -5.253962 -1.351343 21.545580 -27.418924 8.170066 1.848162 -49.513868 -9.320703 7.149323 6.808643 -39.200857 8.096294 0.101169 -2.269610 -4.242367 30.809676 -4.291787 0.426518 44.653157 4.915069 12.341656 -17.595915 31.009263 -12.700420 2.100268 2.471567 -1.286598 
1.438065 0.850983 0.986981 -1.560065 -1.843834 86.252485 3.512910 1.848770 -3.048547 -5.461699 -9.359146 14.604239 4.071839 9.035044 -13.781109 0.000000 -0.000000 0.000000 -7.918816 -0.361639 -10.918639 -2.654312 0.194292 36.806088 3.447530 -11.722297 -18.939786 0.000000 -0.000000 0.000000 0.075673 -2.279050 14.839173 2.810202 -0.912632 -3.264060 -0.864592 -1.955869 2.939644 3.308594 3.081708 10.563508 -5.909959 -1.515345 21.938313 -27.376985 8.710744 1.669486 -49.574767 -9.410389 6.941931 8.300390 -39.543553 6.198679 0.273606 -2.341384 -4.613584 30.685992 -4.396294 -0.018798 45.500974 5.041856 12.998780 -17.247895 30.918156 -11.499213 2.651124 2.423004 -2.027899 
1.450471 0.850525 0.991271 -0.514390 -2.072325 86.477844 2.475349 1.324545 -2.202865 -5.052082 -9.833937 12.333260 4.134993 8.980126 -12.546256 0.000000 -0.000000 0.000000 -4.806999 0.394560 -11.020039 -1.924890 -0.676818 38.286956 3.684447 -11.254692 -19.667478 0.000000 -0.000000 0.000000 -0.483005 -2.691781 14.633994 2.720852 -1.304573 -3.154505 -1.040198 -2.159788 2.844233 3.435291 3.238281 11.127277 -5.950079 -1.781767 21.972373 -27.091058 8.912984 1.671251 -49.581086 -8.923187 6.744484 9.495886 -39.608618 4.623282 -0.223463 -1.926945 -4.878094 30.775810 -4.448181 0.010459 46.686661 5.028374 13.124289 -17.517407 31.353687 -11.515511 2.833508 2.478446 -2.827274 
1.461643 0.849821 0.993512 0.096627 -2.794043 86.908077 1.036888 0.758582 -1.373664 -4.617716 -10.442434 9.883948 4.239152 9.021296 -11.383564 0.000000 -0.000000 0.000000 -1.999508 2.067962 -10.916649 -1.166127 0.056593 37.901283 4.209529 -9.734847 -20.402087 0.000000 -0.000000 0.000000 -1.628534 -2.672390 14.315476 2.610379 -1.506692 -3.086762 -1.062090 -2.252570 2.612885 3.381786 3.652225 12.055752 -5.675494 -2.143138 21.548660 -26.797861 8.756316 1.889693 -49.260195 -8.565632 6.724552 10.015481 -38.918970 3.450556 -0.653175 -1.646611 -4.499456 30.792835 -4.854712 0.071715 47.841724 4.657002 13.338107 -18.265123 32.680757 -11.135399 3.341677 2.653422 -3.687383 
1.471510 0.847784 0.993806 0.815278 -3.423734 87.423363 0.069776 0.502622 -0.860278 -4.748141 -10.778158 7.882650 3.937912 8.602999 -10.521656 0.000000 -0.000000 0.000000 0.567414 3.699561 -10.267869 -0.455376 1.211858 35.196418 3.894294 -9.605394 -21.581792 0.000000 -0.000000 0.000000 -2.370196 -2.803963 13.915795 2.471702 -1.792694 -3.226245 -1.224228 -2.503008 2.867868 3.519846 3.745632 11.675274 -5.773942 -2.733622 21.566172 -27.141972 8.862642 1.417484 -48.755839 -8.354413 6.760284 10.806066 -37.731500 2.058114 2.438934 -1.430748 -2.503430 30.717999 -5.231900 -0.636812 48.896232 4.124567 14.138936 -18.638353 34.120261 -10.742351 2.585717 2.938627 -4.157620 
1.481054 0.845694 0.992903 2.183391 -4.385108 88.078636 -1.227953 -0.015200 -0.823644 -4.957030 -10.566621 6.438603 3.807916 8.191429 -10.034590 0.000000 -0.000000 0.000000 1.623456 4.177376 -9.313055 -0.158212 1.676458 30.972892 4.660816 -9.571624 -22.550962 0.000000 -0.000000 0.000000 -2.919463 -2.956160 13.698894 2.088873 -2.625905 -3.563976 -1.626690 -3.047468 2.475713 3.667722 3.988448 12.000825 -5.926749 -2.599382 21.436439 -26.805991 9.124065 1.838860 -48.518401 -7.689143 6.896401 9.827592 -37.180799 3.013960 -0.599717 -1.344850 -3.716876 30.654837 -5.708613 -0.789865 49.744076 3.743674 14.861703 -18.672000 35.309832 -9.890263 3.545078 3.223765 -4.787878 
1.489407 0.843562 0.991006 3.610357 -5.262652 88.816488 -1.951598 0.034056 -1.468081 -6.172045 -10.047285 6.000783 2.982678 7.055686 -10.265609 0.000000 -0.000000 0.000000 2.120447 3.443399 -8.199650 -0.594599 1.160694 26.070773 3.405311 -9.828472 -22.057273 0.000000 -0.000000 0.000000 -3.426766 -2.939363 13.015860 1.861964 -3.576706 -3.717900 -1.683130 -3.546036 2.420161 3.115008 4.029702 12.042365 -6.124963 -2.283434 21.496058 -26.904532 8.868178 2.178011 -48.619226 -7.391028 6.737595 9.507975 -35.516393 3.305823 -0.559639 -1.255728 -3.711160 30.743770 -6.145095 -0.719459 50.200763 3.908989 14.868853 -18.675413 35.956995 -9.134580 3.603355 3.337966 -5.260185 
1.497625 0.840391 0.989105 4.355451 -5.780695 89.309708 -2.601956 -0.451500 -1.361496 -6.161006 -11.273102 5.463960 2.482681 6.045672 -11.060159 0.000000 -0.000000 0.000000 2.576156 1.865444 -6.839498 -1.206077 -0.208780 21.540576 2.201223 -11.444493 -19.615972 0.000000 -0.000000 0.000000 -3.037215 -2.598969 12.496756 1.372279 -3.969150 -3.808403 -1.954033 -3.892410 2.527109 2.290767 3.797368 12.378353 -6.015397 -1.890284 21.167017 -27.213309 8.934100 2.170163 -48.929555 -7.278288 6.686592 9.041486 -34.409221 4.374310 -0.891595 -0.744267 -3.391764 30.840927 -6.322340 -0.763122 50.560744 3.779793 14.832631 -18.829209 36.107515 -8.963198 3.075890 3.268751 -5.280167 
